<svg width="40" height="40" viewBox="0 0 40 40" fill="none" xmlns="http://www.w3.org/2000/svg">
<path fill-rule="evenodd" clip-rule="evenodd" d="M12.4417 1.77663C14.3967 1.68663 15.02 1.66663 20 1.66663C24.98 1.66663 25.6033 1.68829 27.5567 1.77663C29.51 1.86496 30.8433 2.17663 32.01 2.62829C33.2317 3.08996 34.34 3.81163 35.2567 4.74496C36.19 5.65996 36.91 6.76663 37.37 7.98996C37.8233 9.15663 38.1333 10.49 38.2233 12.44C38.3133 14.3983 38.3333 15.0216 38.3333 20C38.3333 24.98 38.3117 25.6033 38.2233 27.5583C38.135 29.5083 37.8233 30.8416 37.37 32.0083C36.91 33.2318 36.1888 34.3403 35.2567 35.2566C34.34 36.19 33.2317 36.91 32.01 37.37C30.8433 37.8233 29.51 38.1333 27.56 38.2233C25.6033 38.3133 24.98 38.3333 20 38.3333C15.02 38.3333 14.3967 38.3116 12.4417 38.2233C10.4917 38.135 9.15832 37.8233 7.99166 37.37C6.76819 36.9099 5.65969 36.1887 4.74332 35.2566C3.81062 34.3411 3.08885 33.2331 2.62832 32.01C2.17666 30.8433 1.86666 29.51 1.77666 27.56C1.68666 25.6016 1.66666 24.9783 1.66666 20C1.66666 15.02 1.68832 14.3966 1.77666 12.4433C1.86499 10.49 2.17666 9.15663 2.62832 7.98996C3.08953 6.76676 3.81185 5.65881 4.74499 4.74329C5.66006 3.81079 6.76744 3.08903 7.98999 2.62829C9.15666 2.17663 10.49 1.86663 12.44 1.77663H12.4417ZM27.4083 5.07663C25.475 4.98829 24.895 4.96996 20 4.96996C15.105 4.96996 14.525 4.98829 12.5917 5.07663C10.8033 5.15829 9.83332 5.45663 9.18666 5.70829C8.33166 6.04163 7.71999 6.43663 7.07832 7.07829C6.47006 7.67004 6.00196 8.39043 5.70832 9.18663C5.45666 9.83329 5.15832 10.8033 5.07666 12.5916C4.98832 14.525 4.96999 15.105 4.96999 20C4.96999 24.895 4.98832 25.475 5.07666 27.4083C5.15832 29.1966 5.45666 30.1666 5.70832 30.8133C6.00166 31.6083 6.46999 32.33 7.07832 32.9216C7.66999 33.53 8.39166 33.9983 9.18666 34.2916C9.83332 34.5433 10.8033 34.8416 12.5917 34.9233C14.525 35.0116 15.1033 35.03 20 35.03C24.8967 35.03 25.475 35.0116 27.4083 34.9233C29.1967 34.8416 30.1667 34.5433 30.8133 34.2916C31.6683 33.9583 32.28 33.5633 32.9217 32.9216C33.53 32.33 33.9983 31.6083 34.2917 30.8133C34.5433 30.1666 34.8417 29.1966 34.9233 27.4083C35.0117 25.475 35.03 24.895 35.03 20C35.03 15.105 35.0117 14.525 34.9233 12.5916C34.8417 10.8033 34.5433 9.83329 34.2917 9.18663C33.9583 8.33163 33.5633 7.71996 32.9217 7.07829C32.3299 6.47008 31.6095 6.00198 30.8133 5.70829C30.1667 5.45663 29.1967 5.15829 27.4083 5.07663ZM17.6583 25.6516C18.9661 26.196 20.4223 26.2695 21.7782 25.8595C23.1341 25.4495 24.3056 24.5815 25.0927 23.4037C25.8797 22.2259 26.2334 20.8114 26.0934 19.4018C25.9534 17.9922 25.3283 16.6749 24.325 15.675C23.6854 15.0358 22.912 14.5463 22.0605 14.2419C21.2091 13.9374 20.3007 13.8256 19.4008 13.9143C18.5009 14.0031 17.6319 14.2903 16.8563 14.7552C16.0807 15.2201 15.4179 15.8512 14.9155 16.603C14.4131 17.3549 14.0836 18.2088 13.9508 19.1032C13.8181 19.9977 13.8852 20.9104 14.1476 21.7758C14.4099 22.6412 14.8608 23.4376 15.4679 24.1078C16.0749 24.778 16.823 25.3053 17.6583 25.6516ZM13.3367 13.3366C14.2117 12.4616 15.2505 11.7675 16.3938 11.2939C17.5371 10.8203 18.7625 10.5766 20 10.5766C21.2375 10.5766 22.4629 10.8203 23.6062 11.2939C24.7495 11.7675 25.7883 12.4616 26.6633 13.3366C27.5384 14.2117 28.2325 15.2505 28.7061 16.3938C29.1796 17.5371 29.4234 18.7625 29.4234 20C29.4234 21.2375 29.1796 22.4628 28.7061 23.6061C28.2325 24.7494 27.5384 25.7882 26.6633 26.6633C24.8961 28.4305 22.4992 29.4233 20 29.4233C17.5008 29.4233 15.1039 28.4305 13.3367 26.6633C11.5694 24.8961 10.5766 22.4992 10.5766 20C10.5766 17.5007 11.5694 15.1039 13.3367 13.3366ZM31.5133 11.98C31.7302 11.7754 31.9038 11.5294 32.0238 11.2566C32.1439 10.9837 32.208 10.6896 32.2123 10.3915C32.2167 10.0934 32.1612 9.79754 32.0491 9.52131C31.9371 9.24508 31.7707 8.99414 31.5599 8.78336C31.3491 8.57257 31.0982 8.40622 30.822 8.29415C30.5457 8.18209 30.2498 8.12659 29.9518 8.13093C29.6537 8.13528 29.3595 8.19938 29.0867 8.31945C28.8139 8.43952 28.5679 8.61312 28.3633 8.82996C27.9655 9.25167 27.7477 9.81183 27.7562 10.3915C27.7646 10.9712 27.9986 11.5248 28.4086 11.9347C28.8185 12.3446 29.3721 12.5787 29.9518 12.5871C30.5315 12.5956 31.0916 12.3778 31.5133 11.98Z" fill="black" fill-opacity="0.5"/>
</svg>
