<svg width="74" height="74" viewBox="0 0 74 74" fill="none" xmlns="http://www.w3.org/2000/svg">
<path d="M61.8571 57.6506C65.1781 53.6548 67.4879 48.918 68.5911 43.8408C69.6943 38.7635 69.5584 33.4953 68.1949 28.4817C66.8314 23.4681 64.2805 18.8566 60.7578 15.0374C57.2352 11.2182 52.8445 8.30359 47.9572 6.54015C43.07 4.7767 37.8298 4.2163 32.6802 4.90635C27.5305 5.5964 22.6228 7.5166 18.3722 10.5045C14.1216 13.4924 10.6531 17.4601 8.26023 22.072C5.86736 26.6839 4.62046 31.8043 4.62501 37C4.62676 44.553 7.28842 51.8642 12.143 57.6506L12.0967 57.6899C12.2586 57.8842 12.4436 58.0507 12.6101 58.2426C12.8182 58.4808 13.0425 58.7051 13.2576 58.9363C13.9051 59.6393 14.5711 60.3146 15.2695 60.9482C15.4822 61.1425 15.7019 61.3228 15.917 61.5078C16.657 62.1461 17.4178 62.752 18.2063 63.3162C18.3081 63.3856 18.4006 63.4758 18.5023 63.5475V63.5197C23.9184 67.3311 30.3796 69.3766 37.0023 69.3766C43.6251 69.3766 50.0862 67.3311 55.5023 63.5197V63.5475C55.6041 63.4758 55.6943 63.3856 55.7983 63.3162C56.5846 62.7497 57.3477 62.1461 58.0877 61.5078C58.3028 61.3228 58.5225 61.1402 58.7352 60.9482C59.4336 60.3123 60.0996 59.6393 60.7471 58.9363C60.9621 58.7051 61.1841 58.4808 61.3946 58.2426C61.5588 58.0507 61.7461 57.8842 61.908 57.6876L61.8571 57.6506ZM37 18.5C39.0582 18.5 41.0701 19.1103 42.7814 20.2537C44.4927 21.3972 45.8265 23.0224 46.6141 24.9239C47.4018 26.8254 47.6078 28.9178 47.2063 30.9364C46.8048 32.955 45.8137 34.8092 44.3583 36.2645C42.903 37.7199 41.0488 38.711 39.0302 39.1125C37.0116 39.514 34.9192 39.308 33.0177 38.5203C31.1162 37.7327 29.491 36.3989 28.3475 34.6876C27.2041 32.9763 26.5938 30.9644 26.5938 28.9062C26.5938 26.1463 27.6901 23.4994 29.6417 21.5479C31.5932 19.5963 34.2401 18.5 37 18.5ZM18.5162 57.6506C18.5563 54.6142 19.7903 51.7157 21.9511 49.5821C24.1119 47.4486 27.0259 46.2515 30.0625 46.25H43.9375C46.9742 46.2515 49.8881 47.4486 52.0489 49.5821C54.2098 51.7157 55.4437 54.6142 55.4838 57.6506C50.4122 62.2209 43.8271 64.7501 37 64.7501C30.1729 64.7501 23.5879 62.2209 18.5162 57.6506Z" fill="black"/>
</svg>
